<svg id="Capa_1" data-name="Capa 1" xmlns="http://www.w3.org/2000/svg" xmlns:xlink="http://www.w3.org/1999/xlink" viewBox="0 0 150 50"><defs><style>.cls-1{fill:none;}.cls-2{fill:#c41d1b;}.cls-3{clip-path:url(#clip-path);}.cls-4{clip-path:url(#clip-path-2);}</style><clipPath id="clip-path"><rect class="cls-1" x="-15" y="71" width="1989" height="631"/></clipPath><clipPath id="clip-path-2"><rect class="cls-1" x="-14.77" y="-280.38" width="1988.77" height="1302.02"/></clipPath></defs><title>Mesa de trabajo 1</title><path class="cls-2" d="M44.62,32c.39.08.71.13,1,.22a3.2,3.2,0,0,1,2.3,2.87A5.74,5.74,0,0,1,45.3,40.4a3.31,3.31,0,0,1-2.45.58A2.42,2.42,0,0,1,41,39.69a3.79,3.79,0,0,1-.44-1.54,9.33,9.33,0,0,1,.6-3.77c.07-.2.22-.38.12-.65a4,4,0,0,0-1,.71A1.06,1.06,0,0,0,40,35a11.35,11.35,0,0,1-.75,1.76,2.92,2.92,0,0,1-.61.83,1,1,0,0,1-.72.31.73.73,0,0,1-.74-.6,1.49,1.49,0,0,1,.18-1.07,6.59,6.59,0,0,1,1.06-1.41,7.17,7.17,0,0,1,.74-.72,1.44,1.44,0,0,0,.5-1A1.72,1.72,0,0,0,39.52,32c-.24.05-.34.23-.47.37C38,33.49,37,34.64,35.89,35.76a19.35,19.35,0,0,1-5.07,4,11.44,11.44,0,0,1-6.2,1.3,7,7,0,0,1-4.46-1.91A5.93,5.93,0,0,1,18.42,36a7.15,7.15,0,0,1,1.33-6,7.26,7.26,0,0,1,4.71-2.78,6.48,6.48,0,0,1,3.49.3,6,6,0,0,1,3.34,3,3.8,3.8,0,0,1,.38,1.79,1.75,1.75,0,0,1-.14.64,1,1,0,0,1-1,.64,1,1,0,0,1-.91-.64,1.77,1.77,0,0,1-.12-1.09c0-.24.09-.48.14-.72a1.92,1.92,0,0,0-.69-2,4,4,0,0,0-2.32-.85,5,5,0,0,0-3.23.84A6.83,6.83,0,0,0,20.17,36,4.42,4.42,0,0,0,23.6,39.9a7.64,7.64,0,0,0,3.65.11,12,12,0,0,0,5.1-2.39,30.84,30.84,0,0,0,3.44-3.12c1-1,1.87-2,2.8-3.05a.94.94,0,0,0,.33-.5,1.64,1.64,0,0,0-1-.64,1.59,1.59,0,0,0-1.53.54,6.5,6.5,0,0,0-.47.66c-.1.14-.17.3-.27.44a.41.41,0,0,1-.46.14.35.35,0,0,1-.21-.36,3,3,0,0,1,.09-.51,3.1,3.1,0,0,1,3.87-1.93,2.55,2.55,0,0,1,.76.45c.23.19.27.19.48,0,1.4-1.52,2.78-3.06,4.19-4.57a29.78,29.78,0,0,1,3.08-3c.25-.2.51-.39.77-.57a4.83,4.83,0,0,1,.59-.32.78.78,0,0,1,1,.1.76.76,0,0,1,.16.94c-.16.34-.3.68-.46,1-.62,1.23-1.35,2.4-2,3.59q-1.3,2.23-2.5,4.52C44.8,31.6,44.73,31.78,44.62,32Zm3.91-9.52c-.2-.06-.32.1-.43.21-.58.53-1.17,1.06-1.72,1.63-1.17,1.22-2.32,2.47-3.47,3.72-.69.74-1.36,1.49-2,2.23a.83.83,0,0,0-.28,1,3.74,3.74,0,0,1,.11,1.25c0,.13-.09.28.08.41a4.28,4.28,0,0,1,.72-.34,1.49,1.49,0,0,0,.9-.8c1.11-1.89,2.3-3.73,3.55-5.52.88-1.26,1.74-2.52,2.6-3.77v0ZM46.29,35.72a3.83,3.83,0,0,0-.18-1.13,1.94,1.94,0,0,0-1.68-1.46c-.29-.05-.38,0-.51.28a20.52,20.52,0,0,0-1.15,3,10.25,10.25,0,0,0-.37,1.73,3.59,3.59,0,0,0,.05,1.18.87.87,0,0,0,.87.75,1.86,1.86,0,0,0,1.06-.24,3,3,0,0,0,.87-.78A5.44,5.44,0,0,0,46.29,35.72Z"/><path class="cls-2" d="M59.33,8a1,1,0,0,0,.58,0,11.16,11.16,0,0,1,3.16-.12A6.91,6.91,0,0,1,67.13,9.6a4.23,4.23,0,0,1,1.45,3.12,4.58,4.58,0,0,1-.76,2.66,5.15,5.15,0,0,1-3.95,2.54,4.76,4.76,0,0,1-4.15-1.65,7.26,7.26,0,0,1-1.86-4.48,7.38,7.38,0,0,1,.06-2c0-.12,0-.24,0-.38-.19-.08-.35,0-.49.08a9.17,9.17,0,0,0-1.78.87l-.45.26a.4.4,0,0,1-.46-.13.42.42,0,0,1,0-.49,2,2,0,0,1,.74-.6,13.78,13.78,0,0,1,1.89-.81l.14,0a1.06,1.06,0,0,0,.94-.89,6,6,0,0,1,4.74-3.56,6.63,6.63,0,0,1,2.27.12c1.77.32,3.48.87,5.22,1.32a27.93,27.93,0,0,0,3.38.75,5.86,5.86,0,0,0,1.62,0,51.65,51.65,0,0,0,5.51-1A35.67,35.67,0,0,0,85,4.22,3.46,3.46,0,0,1,85.79,4a.63.63,0,0,1,.7.67.46.46,0,0,1-.21.37,3.45,3.45,0,0,1-.93.44,23.59,23.59,0,0,1-3.5.88c-2.07.41-4.17.73-6.26,1a1.47,1.47,0,0,0-.79.35,12.37,12.37,0,0,0-1.15,1.14,26.6,26.6,0,0,0-2.81,3.88c-.76,1.24-1.48,2.51-2.21,3.76a26.19,26.19,0,0,1-2.76,4,13.43,13.43,0,0,1-3.09,2.73,5.71,5.71,0,0,1-6.34,0,7.58,7.58,0,0,1-1.1-.86,4.11,4.11,0,0,1-1.29-3,1.77,1.77,0,0,1,.75-1.67,1.53,1.53,0,0,1,.68-.26.9.9,0,0,1,1,1.16,1.56,1.56,0,0,1-.63.88,5.25,5.25,0,0,0-.53.4.63.63,0,0,0-.17.74,2.41,2.41,0,0,0,.46.75A4.9,4.9,0,0,0,60,23a7.06,7.06,0,0,0,4-2,20.67,20.67,0,0,0,2.74-3.38c.77-1.12,1.45-2.29,2.12-3.47A41.86,41.86,0,0,1,71.44,10a17,17,0,0,1,1.84-2.21s.07-.09.06-.13a.15.15,0,0,0-.16-.12c-1,0-2-.19-2.93-.3S68.16,7,67.12,6.75a30.31,30.31,0,0,0-4.45-.6,4.27,4.27,0,0,0-1.81.27,2.81,2.81,0,0,0-1.49,1.27A.35.35,0,0,0,59.33,8Zm5.16,8.31A3,3,0,0,0,66,16a2.15,2.15,0,0,0,1.3-1.59,3.26,3.26,0,0,0-.09-1.67,4.27,4.27,0,0,0-1.5-2.07A8.07,8.07,0,0,0,59.34,9c-.39.05-.45,0-.5.47a6,6,0,0,0,2,5.32A5.41,5.41,0,0,0,64.49,16.28Z"/><path class="cls-2" d="M65.65,38a1.36,1.36,0,0,1-.4-.61,3.38,3.38,0,0,1,1-.43c.31-.13.62-.24.93-.35-.07-.22-.24-.23-.36-.29a2.91,2.91,0,0,1-1.57-2.51,4.2,4.2,0,0,1,.15-1.46,6.42,6.42,0,0,1,4.52-4.83,4.64,4.64,0,0,1,2.48-.09A2.94,2.94,0,0,1,74.67,30a4.44,4.44,0,0,1-.11,1.54,6.4,6.4,0,0,1-4.74,5l-.14,0-.08.07c.22.29.58.32.88.43a4.93,4.93,0,0,0,.94.21,3.65,3.65,0,0,0,1,0c.08.16,0,.22-.08.29a11,11,0,0,0-.84.83,1.07,1.07,0,0,1-1.06.34,4.51,4.51,0,0,1-1.52-.53c-.26-.14-.51-.3-.77-.45a1.9,1.9,0,0,0-1.9-.08Zm7-6.89a4.14,4.14,0,0,0-.28-1.76,1.73,1.73,0,0,0-2-1.11,2.77,2.77,0,0,0-1.58.74A4.13,4.13,0,0,0,68,30.16a7,7,0,0,0-.72,2.91,3.32,3.32,0,0,0,.36,1.71,1.73,1.73,0,0,0,1.81,1,2.78,2.78,0,0,0,1.59-.7,4.11,4.11,0,0,0,.94-1.22A6.94,6.94,0,0,0,72.68,31.06Z"/><path class="cls-2" d="M73.65,13.54c-.16-.15-.4,0-.56-.17a1.56,1.56,0,0,1,.12-.55.27.27,0,0,1,.28-.21h.07c1.23,0,2.46-.06,3.69.06a4.17,4.17,0,0,1,1.15.26,2,2,0,0,1,1.26,2.32,4,4,0,0,1-2.52,3.05c-.22.1-.45.17-.72.27.33.71.66,1.4,1,2.09.09.19.26.19.44.21s.29.1.23.33l-.12.34a.25.25,0,0,1-.23.17H75.87c-.17,0-.25-.13-.3-.28l-.7-1.86a3.61,3.61,0,0,1-.16-.42.4.4,0,0,0-.45-.29.35.35,0,0,0-.38.27l-.47,1.61c.17.19.4.06.59.2,0,.07,0,.17,0,.26-.12.5-.13.52-.62.52H70.9a.19.19,0,0,1-.2-.24c0-.07,0-.14,0-.21.06-.28.2-.44.5-.4s.36-.09.42-.31c.66-2.27,1.32-4.53,2-6.8A.74.74,0,0,0,73.65,13.54Zm.64,4.37a2.61,2.61,0,0,0,1.59-.11,3.14,3.14,0,0,0,2-2.83,1.27,1.27,0,0,0-1-1.34,5.09,5.09,0,0,0-1-.09c-.38,0-.4,0-.51.38q-.45,1.49-.87,3A3.8,3.8,0,0,0,74.29,17.91Z"/><path class="cls-2" d="M54.28,33.34a.81.81,0,0,0,.13.52c.23.46.46.93.66,1.4a.56.56,0,0,0,.61.42c.14,0,.21.1.16.25s-.06.19-.08.28a.33.33,0,0,1-.36.29H53.46c-.27-.72-.54-1.4-.8-2.09-.07-.18-.13-.37-.21-.55a.37.37,0,0,0-.35-.22c-.26,0-.38.06-.45.29-.16.54-.31,1.08-.46,1.62a.57.57,0,0,0,.13.1c.14.06.38-.07.43.17a.8.8,0,0,1-.2.62s-.13.05-.2.05H48.69c-.15,0-.23-.08-.21-.23a1.74,1.74,0,0,1,.05-.22c.08-.31.12-.37.44-.37s.42-.14.5-.41c.65-2.27,1.32-4.53,2-6.8a.75.75,0,0,0,0-.15c-.16-.14-.39,0-.55-.13a.8.8,0,0,1,.1-.57.25.25,0,0,1,.22-.16l.22,0c1.06,0,2.12,0,3.18,0a3.66,3.66,0,0,1,1.31.2,3.35,3.35,0,0,1,.66.32,1.75,1.75,0,0,1,.86,1.54,3.66,3.66,0,0,1-1.32,2.85,4.37,4.37,0,0,1-1.26.76Zm-2.23-.6a.94.94,0,0,0,.59.07,3.07,3.07,0,0,0,3-3,1.27,1.27,0,0,0-1.22-1.39l-.73-.07c-.34,0-.42,0-.52.39-.37,1.25-.73,2.5-1.09,3.74A1.5,1.5,0,0,0,52.05,32.74Z"/><path class="cls-2" d="M79.51,35.9l-.57.32a3.54,3.54,0,0,1-2,.45,2,2,0,0,1-.64-.14,1.28,1.28,0,0,1-.91-1.21,4.52,4.52,0,0,1,.21-1.67c.46-1.56.91-3.11,1.36-4.67.07-.21.12-.43.18-.64-.15-.17-.38,0-.56-.15s0-.32,0-.47a.35.35,0,0,1,.38-.28h1.84c.3,0,.36.07.28.35l-.84,2.9c-.29,1-.58,2-.86,3a3.62,3.62,0,0,0-.16.86.85.85,0,0,0,1,1,1.82,1.82,0,0,0,1.22-.45,2.91,2.91,0,0,0,.87-1.43c.32-1.11.65-2.21,1-3.32l.57-2c-.15-.22-.43,0-.62-.22,0-.09,0-.21.07-.32.09-.33.13-.37.45-.37h1.84c.24,0,.3.09.24.33s-.13.48-.2.71c-.64,2.22-1.29,4.44-1.93,6.66,0,.14-.07.28-.1.41.16.18.45,0,.54.2s-.06.46-.18.74H79.87c-.21,0-.23,0-.22-.36,0,0,0-.09,0-.14s0-.13,0-.17S79.55,35.84,79.51,35.9Z"/><path class="cls-2" d="M90.21,13.53l-.2-.06c-.13,0-.34,0-.38-.12a.83.83,0,0,1,.21-.68.3.3,0,0,1,.2-.06,27.38,27.38,0,0,1,3.84.12,3.12,3.12,0,0,1,1.48.61,2.41,2.41,0,0,1,.92,1.55,4.57,4.57,0,0,1-.06,1.69A6.82,6.82,0,0,1,94,20.45a5.1,5.1,0,0,1-2.73,1.18,36.3,36.3,0,0,1-3.76.08c-.19,0-.26-.1-.23-.28s0-.19.08-.29.15-.3.36-.28a1.77,1.77,0,0,0,.23,0,.26.26,0,0,0,.25-.21c.14-.5.29-1,.44-1.49l1.53-5.23C90.15,13.81,90.18,13.69,90.21,13.53ZM90,20.71a3.05,3.05,0,0,0,1.66-.2,3.61,3.61,0,0,0,1.52-1.35,7.15,7.15,0,0,0,1.22-3.51c.09-1.24-.5-2.12-1.87-2.06h-.22c-.19,0-.34.05-.37.27a.86.86,0,0,1-.07.21c-.6,2.07-1.21,4.14-1.81,6.22A2,2,0,0,0,90,20.71Z"/><path class="cls-2" d="M116.71,21.89a4.45,4.45,0,0,1-1.09-.13,3,3,0,0,1-2.26-2.44,4.15,4.15,0,0,1,0-1.61,6.46,6.46,0,0,1,4.55-5,4.64,4.64,0,0,1,2.4-.11,2.94,2.94,0,0,1,2.38,2.57,5,5,0,0,1-.33,2.46,6.43,6.43,0,0,1-4.18,4.06A4.88,4.88,0,0,1,116.71,21.89Zm-1.4-3.61a3.48,3.48,0,0,0,.31,1.59,1.79,1.79,0,0,0,2.1,1.08,2.83,2.83,0,0,0,1.42-.74A4.22,4.22,0,0,0,120,19a7.06,7.06,0,0,0,.75-3,3.43,3.43,0,0,0-.41-1.78,1.69,1.69,0,0,0-1.85-.9,3.11,3.11,0,0,0-2.15,1.42A6.73,6.73,0,0,0,115.31,18.28Z"/><path class="cls-2" d="M125.73,15.2c-.55,1.91-1.09,3.74-1.62,5.57l.18.08c.16,0,.39-.07.46.12s-.06.43-.16.63a.22.22,0,0,1-.17.1c-.67,0-1.33,0-2,0-.11,0-.15-.11-.13-.22a1.66,1.66,0,0,0,.06-.21c.05-.28.18-.45.49-.41s.38-.12.45-.37q.94-3.28,1.91-6.59a2.17,2.17,0,0,0,.07-.35c-.17-.14-.39,0-.57-.14a.3.3,0,0,1,0-.13c.21-.7.08-.68.89-.67h1c.5,0,.51,0,.66.48.52,1.56,1,3.13,1.53,4.7.08.22.16.44.28.8.57-1.75,1-3.39,1.49-5-.16-.21-.43,0-.59-.18A.63.63,0,0,1,130,13c.08-.31.14-.36.46-.36h1.7a.19.19,0,0,1,.19.25c0,.12-.08.23-.11.35a.29.29,0,0,1-.31.25.8.8,0,0,0-.47.07c-.09.28-.18.58-.27.88L129.23,21a3.58,3.58,0,0,1-.11.35c-.11.34-.11.35-.46.36h-.44a.34.34,0,0,1-.37-.28Q127,18.7,126.1,16A1.5,1.5,0,0,0,125.73,15.2Z"/><path class="cls-2" d="M109.76,33.3a39.89,39.89,0,0,0,1.51-5c-.16-.14-.39,0-.56-.13a.3.3,0,0,1,0-.13c.12-.69.2-.62.76-.62l1.47,0a.23.23,0,0,1,.17.11.9.9,0,0,1-.14.56c-.06.14-.21.1-.32.12-.41,0-.42,0-.54.44q-1,3.54-2.06,7.08c-.24.85-.13.72-1,.73-.3,0-.32,0-.41-.32-.54-1.7-1.08-3.42-1.63-5.12a3.52,3.52,0,0,0-.35-.91c-.15-.06-.17,0-.19.09l-1.47,5,0,.15c0,.14,0,.24.17.25a1.45,1.45,0,0,1,.3,0,.24.24,0,0,1,.13.15.93.93,0,0,1-.18.55.24.24,0,0,1-.18.1h-2a.12.12,0,0,1-.12-.15c0-.1,0-.19.06-.29s.17-.4.45-.37a.4.4,0,0,0,.48-.34Q105,32,106,28.6a2,2,0,0,0,.06-.3l-.58-.1a.11.11,0,0,1,0-.08c.13-.73.17-.68.78-.68h1.11c.47,0,.48,0,.62.44.43,1.31.84,2.62,1.27,3.93Z"/><path class="cls-2" d="M90.42,35.56c.23.19.48,0,.68.17a.83.83,0,0,1-.07.56.29.29,0,0,1-.28.21h-3a.79.79,0,0,1,.09-.68c.07-.17.24-.16.38-.15s.39-.13.46-.36q.75-2.62,1.52-5.24c.16-.57.32-1.14.48-1.69-.16-.24-.44,0-.59-.22a1.06,1.06,0,0,1,.08-.43.31.31,0,0,1,.37-.28c1.23,0,2.46-.06,3.69.05a2.78,2.78,0,0,1,1.19.35,1.88,1.88,0,0,1,1,1.68,4.43,4.43,0,0,1-2.34,4,3.88,3.88,0,0,1-2.92.42c-.19,0-.29,0-.34.15C90.69,34.59,90.56,35.09,90.42,35.56Zm4-5.59a3.2,3.2,0,0,0,0-.44,1.29,1.29,0,0,0-1.08-1.14l-.44-.07c-.34,0-.43,0-.53.37l-1,3.39a3.25,3.25,0,0,0-.08.43c0,.53.14.74.66.75a1.91,1.91,0,0,0,1.41-.68A4.14,4.14,0,0,0,94.47,30Z"/><path class="cls-2" d="M101.86,31.52H99.68a.28.28,0,0,0-.26.21l-.27.92c-.25.88-.51,1.75-.76,2.62,0,.19,0,.28.21.29a4,4,0,0,0,3.32-1.28l0,0c.29-.29.29-.29.77,0-.47.7-.93,1.39-1.38,2.09a.54.54,0,0,1-.52.19l-3.39,0H96l-.42,0c-.09-.17,0-.31,0-.45a.35.35,0,0,1,.39-.35h.15a.34.34,0,0,0,.36-.29c.21-.76.43-1.51.65-2.27l1.38-4.74c-.14-.24-.43,0-.61-.23,0-.09,0-.21.06-.32.09-.32.14-.37.45-.37h5c.25,0,.3,0,.33.29s.08.68.11,1a.5.5,0,0,1-.51.57.23.23,0,0,1-.24-.13,1.75,1.75,0,0,0-1.71-.81l-1,0a2.88,2.88,0,0,0-.36,1,4.54,4.54,0,0,0-.28,1.1c.83.07,1.63,0,2.43,0,.06-.16.09-.27.14-.38.13-.29.17-.32.51-.3.19,0,.27.08.22.27-.17.62-.34,1.23-.52,1.84a.5.5,0,0,1-.68.18.18.18,0,0,1,0-.12C101.85,31.91,102,31.75,101.86,31.52Z"/><path class="cls-2" d="M63.15,32.16l.09-.55c-.05,0-.08-.07-.12-.07H60.84a5.09,5.09,0,0,0-.38,1.14c-.24.83-.49,1.65-.72,2.48-.09.33,0,.44.28.42a7.3,7.3,0,0,0,1.54-.2,3.74,3.74,0,0,0,1.7-1.11c.28-.32.29-.31.78,0l-1.42,2.13a.39.39,0,0,1-.39.15l-1,0H57.58a1.58,1.58,0,0,1-.65,0,.41.41,0,0,1,0-.36c.1-.36.11-.39.49-.42a.41.41,0,0,0,.45-.37c.57-2,1.15-4,1.73-5.95.1-.33.19-.66.27-1,0-.12-.1-.12-.17-.14s-.35.06-.39-.11a.67.67,0,0,1,.17-.62.4.4,0,0,1,.2-.07h4.8l.44,0a.2.2,0,0,1,.2.18c0,.42.09.83.11,1.25,0,.22-.33.49-.56.45a.26.26,0,0,1-.17-.12,1.78,1.78,0,0,0-1.7-.83H61.73c-.28.7-.42,1.41-.65,2.11a9.69,9.69,0,0,0,2.46.05,1.83,1.83,0,0,0,.14-.32c.07-.35.25-.34.56-.32a.19.19,0,0,1,.19.25c-.08.26-.16.52-.23.78s-.22.7-.31,1.06a.28.28,0,0,1-.3.25A.51.51,0,0,1,63.15,32.16Z"/><path class="cls-2" d="M83.53,21.66c-.07-.12,0-.24,0-.36.11-.41.11-.41.54-.44l.28,0a.35.35,0,0,0,.05-.08,5.43,5.43,0,0,0-.06-1.45,3.34,3.34,0,0,0-1.3-.09c-.51,0-1,0-1.55,0a.59.59,0,0,0-.58.34c-.24.41-.49.8-.71,1.14,0,.19.08.16.14.17s.34-.05.38.14-.2.72-.44.72h-1.7c-.18,0-.25-.11-.21-.3s.08-.23.12-.35a.23.23,0,0,1,.27-.19c.34,0,.47-.18.62-.42q1.77-2.85,3.56-5.7c.39-.62.79-1.24,1.18-1.87a.49.49,0,0,1,.48-.27h1c.27,0,.33.07.34.37.06,1.28.1,2.56.15,3.84s.11,2.5.15,3.76c0,.17.07.25.26.28s.31.13.24.38c0,.09-.07.18-.1.28a.28.28,0,0,1-.28.19C86,21.75,83.88,21.71,83.53,21.66ZM81.89,18.2c.73.05,1.48,0,2.23,0,.16,0,.19-.13.19-.26l0-2.13c0-.37,0-.74,0-1.1,0-.08,0-.17-.11-.16s-.11.06-.16.11a.54.54,0,0,0-.09.12l-2,3.11C81.9,18,81.81,18.05,81.89,18.2Z"/><path class="cls-2" d="M116.23,36.5a.54.54,0,0,1,0-.48.39.39,0,0,1,.47-.36,2.16,2.16,0,0,0,.35,0,1.48,1.48,0,0,0,0-.24,7.21,7.21,0,0,0-.08-1.31,3.37,3.37,0,0,0-1.3-.09c-.52,0-1,0-1.55,0a.53.53,0,0,0-.55.28c-.25.45-.55.86-.8,1.32.21.06.43.06.52.17s0,.36-.07.54a.26.26,0,0,1-.28.19h-1.89a.74.74,0,0,1,0-.61.26.26,0,0,1,.28-.2c.33,0,.47-.18.62-.42q1.32-2.13,2.66-4.25c.67-1.07,1.34-2.13,2-3.2a.64.64,0,0,1,.65-.37c.32,0,.64,0,1,0s.32.05.34.36l.15,3.76.15,3.75c0,.16,0,.28.2.34.34.11.36.16.28.43s-.16.41-.51.41ZM114.45,33A8.75,8.75,0,0,0,117,32.9c0-1.14,0-2.3-.07-3.45a.14.14,0,0,0-.08-.1.15.15,0,0,0-.13,0L116,30.51Z"/><path class="cls-2" d="M101,18.94a6.23,6.23,0,0,1,.6-2.52,7,7,0,0,1,3.72-3.62,4.38,4.38,0,0,1,1.28-.32,3,3,0,0,1,2.46.71.33.33,0,0,0,.46,0c.22-.11.27-.06.43.22a.25.25,0,0,1-.08.38l-2.19,1.62c-.16.12-.24.09-.36-.09s-.15-.29,0-.52a3,3,0,0,0,.26-.36.72.72,0,0,0-.34-1,1.47,1.47,0,0,0-1-.11,2.77,2.77,0,0,0-1.2.53,5,5,0,0,0-2,4.82,2.24,2.24,0,0,0,.33.89,1.89,1.89,0,0,0,2,.9,3.65,3.65,0,0,0,1.35-.56l.47-.36c.28-.22.44-.17.59.17,0,.07,0,.14,0,.2a6.19,6.19,0,0,1-2.91,1.79,4.75,4.75,0,0,1-1.25.14A2.63,2.63,0,0,1,101,19.5C101,19.28,101,19.06,101,18.94Z"/><path class="cls-2" d="M77,41.69c.32,0,.64,0,1,0a1,1,0,0,1,1,.64,1.13,1.13,0,0,1-.36,1.27l-.11.09c-.42.32-.43.33-.2.81a6.83,6.83,0,0,0,.52,1,.59.59,0,0,0,.93-.12.84.84,0,0,0,.09-.28c.17-.84.34-1.68.5-2.53,0-.05,0-.1,0-.14,0-.23,0-.39-.28-.43a.14.14,0,0,1-.13-.15c0-.1.09-.12.15-.12h1.62c.06,0,.1,0,.09.09s0,.12,0,.13c-.46.1-.49.47-.56.84-.14.8-.3,1.6-.45,2.39,0,.15,0,.34.13.37s.29.25.53.12a1.47,1.47,0,0,0,.65-.56l.3-.51c.46-.81.92-1.62,1.39-2.43a1.75,1.75,0,0,1,.29-.42.4.4,0,0,1,.26-.1c.12,0,.15.12.16.22.17,1,.33,2,.48,3,0,.35.1.68.49.83,0,0,0,.09,0,.12a.15.15,0,0,1-.1.08H83.82a.16.16,0,0,1-.11-.07s0-.12,0-.13c.32-.14.34-.38.26-.67,0-.09,0-.19,0-.29a.21.21,0,0,0-.21-.17h-.29c-.73,0-.62-.12-1,.64-.11.22-.1.23.16.43.06,0,.12.1.09.17a.27.27,0,0,1-.17.1c-.12,0-.24,0-.37,0-.46,0-.91-.06-1.37,0a13.26,13.26,0,0,1-1.41,0,2.12,2.12,0,0,0-.43,0,1.11,1.11,0,0,1-1.43-.69c-.11-.25-.2-.5-.31-.75a1.21,1.21,0,0,0-.2-.3c0-.07-.23,0-.25.05-.06.27-.11.53-.17.79s0,.53.31.64c0,0,0,.07,0,.12s0,.09-.09.09H75.27a.14.14,0,0,1-.1-.07.11.11,0,0,1,.07-.17c.35-.08.45-.33.5-.65.15-.84.34-1.68.5-2.53,0-.14.07-.29-.09-.39s-.34-.09-.26-.28.27-.08.41-.08H77Zm1.06,1a.75.75,0,0,0-.37-.65.32.32,0,0,0-.47.18c-.11.45-.19.91-.27,1.37,0,.12.07.17.18.16A1,1,0,0,0,78,42.69Zm5.6.31a4.85,4.85,0,0,0-.57,1.08c.92.18.8,0,.74-.65A.61.61,0,0,0,83.63,43Z"/><path class="cls-2" d="M111.05,13.51l-.56-.09a.62.62,0,0,1,.06-.45c.11-.35.12-.36.46-.36h2.58c.2,0,.26.09.22.28a1.72,1.72,0,0,0-.07.21.37.37,0,0,1-.45.36.36.36,0,0,0-.45.27l-2,6.87c0,.05,0,.1,0,.15s.38,0,.54.15.05.08,0,.12-.07.29-.11.43a.3.3,0,0,1-.31.25h-2.73a.19.19,0,0,1-.18-.25c0-.1,0-.19.07-.29a.34.34,0,0,1,.41-.31c.31.05.44-.12.51-.39.64-2.22,1.29-4.43,1.93-6.65A1.37,1.37,0,0,0,111.05,13.51Z"/><path class="cls-2" d="M98.78,13.55c-.16-.16-.39,0-.56-.15,0,0,0-.09,0-.13.2-.69.1-.66.82-.66h2c.17,0,.34,0,.49,0,.09.18,0,.31,0,.45s-.16.41-.44.37a.39.39,0,0,0-.48.34l-2,6.72a2.26,2.26,0,0,0,0,.29l.61.1c-.05.2-.08.36-.13.53a.34.34,0,0,1-.37.28H96c-.15,0-.23-.08-.21-.23s0-.19.07-.29.15-.36.4-.33a.43.43,0,0,0,.53-.36c.64-2.25,1.3-4.49,2-6.73A1.64,1.64,0,0,0,98.78,13.55Z"/><path class="cls-2" d="M86,35.56c.17.18.42,0,.57.19s0,0,0,.07c-.15.74-.13.68-.78.68H83.47a.33.33,0,0,1-.14,0c-.11-.14,0-.28,0-.42s.18-.4.45-.36.41-.17.49-.43c.53-1.86,1.08-3.73,1.62-5.59a7.32,7.32,0,0,0,.35-1.36l-.6-.09a2.44,2.44,0,0,1,.06-.31c.12-.43.12-.44.53-.44h2.44c.32,0,.36.08.27.41s-.21.43-.51.39c0,0,0,0-.07,0a.27.27,0,0,0-.31.24l-.6,2.06-1.32,4.53C86.1,35.24,86.07,35.41,86,35.56Z"/><path class="cls-2" d="M64.38,43A14.08,14.08,0,0,0,64,45.17a.36.36,0,0,0,.34.4.17.17,0,0,1,.14.15c0,.15-.12.14-.21.13a3.77,3.77,0,0,1-1.38-.08s-.09-.06-.11,0a4.27,4.27,0,0,1-1.67.12s-.16,0-.14-.11,0-.1.05-.12.23-.1.24-.25a2,2,0,0,0-.06-.73.26.26,0,0,0-.18-.11,1.37,1.37,0,0,0-.29,0c-.78,0-.63-.1-1,.62-.11.21-.1.21.19.47a.17.17,0,0,1,.05.13s0,.1-.08.1a5.14,5.14,0,0,1-1.24,0s-.07-.06-.08-.1,0-.11.06-.12c.4-.12.56-.46.74-.77l1.51-2.63c.09-.15.17-.3.27-.44a.34.34,0,0,1,.32-.15c.13,0,.17.14.19.27.16,1,.33,2,.48,3.06a.77.77,0,0,0,.55.71c.06,0,.11.06.19,0,.28-.14.57-.25.64-.63.16-.8.35-1.59.52-2.38a1.5,1.5,0,0,0,0-.22c0-.24-.07-.44-.35-.47a.16.16,0,0,1-.14-.15c0-.13.1-.14.2-.15H64c1,0,.71-.11,1.2.67.38.61.72,1.24,1.08,1.85,0,0,.09.13.18.06s.07-.07.07-.11c.1-.48.18-1,.27-1.45s.07-.7-.41-.77c0,0-.05-.08-.06-.12a.08.08,0,0,1,.08-.1l1.11,0c.12,0,.32-.08.34.14s-.16.15-.27.19a.53.53,0,0,0-.28.41c-.15.67-.29,1.35-.43,2-.09.43-.17.87-.26,1.3,0,.1-.07.19-.18.2a.28.28,0,0,1-.32-.14l-.33-.57c-.37-.67-.75-1.33-1.12-2C64.59,43.13,64.56,43,64.38,43Zm-4.13,1.11c.94.19.86,0,.77-.64A4.67,4.67,0,0,0,60.9,43a1.84,1.84,0,0,0-.21.28C60.55,43.49,60.42,43.75,60.25,44.07Z"/><path class="cls-2" d="M97.52,41.69c.32,0,.64,0,1,0a1,1,0,0,1,1,.72A1.12,1.12,0,0,1,99,43.64c-.1.08-.21.13-.31.2s-.15.13-.11.25a5.4,5.4,0,0,0,.65,1.32c.09.14.24.31.41.26s.55-.1.61-.45.09-.43.13-.65c.14-.67.27-1.34.41-2,0-.28.06-.54-.31-.61,0,0-.06-.08-.07-.12s.07-.13.13-.13h1.62q.1,0,.09.09s0,.12,0,.13c-.41.09-.48.41-.55.77-.13.77-.28,1.55-.44,2.32-.07.3,0,.53.3.61,0,0,.06.07.07.11s-.07.13-.13.13h-1.4a2.86,2.86,0,0,0-.65.06,1.12,1.12,0,0,1-1.32-.67c-.11-.22-.19-.45-.29-.68a1.58,1.58,0,0,0-.21-.38s-.12,0-.19,0a.16.16,0,0,0-.1.08c-.07.34-.14.68-.19,1a.27.27,0,0,0,.22.33c.09,0,.19.06.15.2s-.11.08-.18.08H95.8s-.07,0-.09-.08,0-.11,0-.12c.46-.09.51-.47.58-.83l.45-2.32c.06-.27,0-.49-.29-.55,0,0-.06-.08-.06-.12a.12.12,0,0,1,.13-.13Zm0,1.78c0,.23.07.31.25.28a1,1,0,0,0,.86-1,.84.84,0,0,0-.2-.54.43.43,0,0,0-.46-.15c-.15,0-.18.16-.21.28C97.63,42.7,97.54,43.11,97.47,43.47Z"/><path class="cls-2" d="M92.74,41.69h.81c.06,0,.1,0,.09.09s0,.12,0,.12c-.39.08-.48.38-.54.7-.1.53-.21,1.06-.29,1.59a2.33,2.33,0,0,0,0,.59.76.76,0,0,0,1,.66,1,1,0,0,0,.7-.49,2.58,2.58,0,0,0,.35-.88c.1-.51.19-1,.26-1.53s0-.38-.35-.58a.5.5,0,0,1-.12-.08s0,0,0-.06,0-.11.07-.11a5.94,5.94,0,0,1,1.46,0s0,.07.06.11,0,0,0,.06S96,42,96,42a.6.6,0,0,0-.46.51c-.1.41-.2.81-.27,1.22A5,5,0,0,1,94.87,45a1.78,1.78,0,0,1-2.29.91,1.13,1.13,0,0,1-.77-1.07A7.24,7.24,0,0,1,92,43.2c0-.26.1-.53.15-.79A.33.33,0,0,0,91.9,42a.15.15,0,0,1-.12-.16.14.14,0,0,1,.15-.12h.81Z"/><path class="cls-2" d="M75.13,41.7a2.45,2.45,0,0,1-.06.91.15.15,0,0,1-.1.09.12.12,0,0,1-.17-.08.86.86,0,0,1-.07-.21.46.46,0,0,0-.52-.41h-.08c-.41,0-.6-.09-.66.54,0,.22-.08.43-.12.65a.74.74,0,0,0,0,.21,1,1,0,0,0,.58.06c.24,0,.31-.21.43-.36a.24.24,0,0,1,.19-.06c.08,0,.11.09.09.17-.08.36-.16.72-.25,1.07,0,0-.07.08-.11.08a.17.17,0,0,1-.12-.06c0-.06,0-.14-.08-.2a.75.75,0,0,0-.84-.14l0,.06A4.68,4.68,0,0,0,73,45.25a.29.29,0,0,0,.29.28,1.13,1.13,0,0,0,1.22-.48,1.06,1.06,0,0,1,.19-.23.15.15,0,0,1,.2,0,.13.13,0,0,1,0,.12,1.52,1.52,0,0,1-.09.28c-.27.71-.15.63-.86.63H71.63c-.06,0-.16,0-.16-.11a.15.15,0,0,1,.13-.15c.29,0,.4-.22.46-.49.16-.87.34-1.73.52-2.6,0-.27,0-.5-.31-.55a.16.16,0,0,1-.07-.12.12.12,0,0,1,.13-.14h2.06Z"/><path class="cls-2" d="M50.34,41.69c.29,0,.59,0,.88,0a1.13,1.13,0,0,1,1.12.81,1.3,1.3,0,0,1-.5,1.37,1.79,1.79,0,0,1-1.32.36c-.31,0-.39-.08-.48.37L50,45a.78.78,0,0,0,0,.43c.07.17.25.13.37.21a.16.16,0,0,1,.07.11c0,.11-.07.13-.13.13h-1.4c-.13,0-.33.07-.35-.15s.17-.13.27-.18.24-.31.28-.5c.12-.57.22-1.15.33-1.73l.15-.8c.05-.26,0-.49-.28-.58,0,0-.05-.08,0-.12s.08-.11.15-.12h1Zm-.07,1.8c0,.33.12.44.32.39a1.15,1.15,0,0,0,.76-1.51.55.55,0,0,0-.43-.36.3.3,0,0,0-.4.22C50.42,42.69,50.34,43.15,50.27,43.49Z"/><path class="cls-2" d="M115.64,42.2c0,.22,0,.36,0,.51s0,.14-.13.15a.14.14,0,0,1-.17-.09c0-.14-.1-.28-.16-.41a.77.77,0,0,0-.78-.44,1.31,1.31,0,0,0-.81.31A2.51,2.51,0,0,0,112.9,45a1.3,1.3,0,0,0,.14.26.89.89,0,0,0,1.11.29,1.79,1.79,0,0,0,.62-.51,4,4,0,0,1,.35-.36s.1,0,.14,0a.14.14,0,0,1,.06.12,2.43,2.43,0,0,1-.43.92.28.28,0,0,1-.17.13,2.84,2.84,0,0,1-2-.05,1.57,1.57,0,0,1-1-1.22,2.43,2.43,0,0,1,1.35-2.69,3,3,0,0,1,2.22-.22c.29.08.32.11.32.39Z"/><path class="cls-2" d="M58.75,42.28c0,.12,0,.31-.07.5a.19.19,0,0,1-.11.08.18.18,0,0,1-.13,0c-.06-.14-.1-.28-.17-.41a.82.82,0,0,0-1-.49,1.46,1.46,0,0,0-1,.62A2.55,2.55,0,0,0,56,44.86a1.26,1.26,0,0,0,.24.44.85.85,0,0,0,1.06.24,2.45,2.45,0,0,0,.67-.57l.31-.31a.13.13,0,0,1,.13,0,.14.14,0,0,1,.06.12,2.87,2.87,0,0,1-.43.92.32.32,0,0,1-.18.12,2.88,2.88,0,0,1-1.88,0,1.61,1.61,0,0,1-1.1-1.5,2.52,2.52,0,0,1,2.44-2.77,3.08,3.08,0,0,1,1.24.1.27.27,0,0,1,.23.31A2.88,2.88,0,0,0,58.75,42.28Z"/><path class="cls-2" d="M102.25,44.94a3.19,3.19,0,0,1,0-.33.12.12,0,0,1,.1-.09.12.12,0,0,1,.12.06c.08.15.13.31.21.46a1.1,1.1,0,0,0,.49.53.6.6,0,0,0,.69,0,.66.66,0,0,0,.23-.72,1.26,1.26,0,0,0-.43-.59,5.17,5.17,0,0,1-.66-.58,1.2,1.2,0,0,1,.59-2,2,2,0,0,1,1.37.1.24.24,0,0,1,.15.23c0,.25,0,.49,0,.74,0,0,0,.08-.09.1a.13.13,0,0,1-.17-.08c-.07-.16-.12-.32-.2-.47a.57.57,0,0,0-.8-.29.61.61,0,0,0-.17.95,2.47,2.47,0,0,0,.37.35c.19.15.4.29.58.46a1.28,1.28,0,0,1-.48,2.15,2,2,0,0,1-1.23,0C102.3,45.74,102.25,45.67,102.25,44.94Z"/><path class="cls-2" d="M118.64,45.86h-.52c-.1,0-.26.06-.29-.12s.1-.16.18-.2a.24.24,0,0,0,.13-.24c0-.7,0-.8-.77-.79a.75.75,0,0,1-.15,0,.43.43,0,0,0-.49.34c0,.09-.07.18-.11.27s-.15.22-.07.33.16.1.24.15a.17.17,0,0,1,.06.12c0,.09-.07.13-.14.13h-1.1c-.08,0-.15,0-.15-.12a.14.14,0,0,1,.11-.16c.34-.1.49-.39.64-.67l1.62-2.81a1.18,1.18,0,0,1,.29-.42c.17-.12.35-.08.39.12.08.43.14.87.21,1.31.11.65.22,1.3.32,2,0,.22.09.44.35.51.08,0,.13.07.12.15s-.12.13-.21.14ZM117.76,43l-.19.28a6.45,6.45,0,0,0-.31.58c-.11.22-.06.3.2.31.51,0,.55,0,.47-.53A1.61,1.61,0,0,0,117.76,43Z"/><path class="cls-2" d="M71.75,41.54a3.08,3.08,0,0,1-.14,1.11.13.13,0,0,1-.11.08.15.15,0,0,1-.17-.1.64.64,0,0,1,0-.07c-.15-.54-.18-.56-.66-.56-.19,0-.26.09-.29.26-.13.67-.27,1.35-.4,2,0,.26-.11.53-.14.79a.73.73,0,0,0,0,.36c0,.14.21.09.31.15s.13.07.11.16a.16.16,0,0,1-.17.11l-1.77,0c-.07,0-.1,0-.08-.09a.19.19,0,0,1,.18-.18c.3,0,.41-.24.46-.5l.45-2.32.12-.65c-.6-.16-.73-.12-1,.33-.07.1-.09.24-.22.29h-.07a.08.08,0,0,1-.1-.08,3.41,3.41,0,0,1,.24-1,.19.19,0,0,1,.18-.09,12.18,12.18,0,0,0,2.56.12C71.25,41.7,71.46,41.55,71.75,41.54Z"/><path class="cls-2" d="M107.07,42.05a.83.83,0,0,0-1.07.43.8.8,0,0,1-.18.23.14.14,0,0,1-.13,0,.15.15,0,0,1-.09-.1c.07-.26.14-.52.22-.78s.09-.29.38-.23a2.22,2.22,0,0,0,.44.06h1.92a1.59,1.59,0,0,0,.57-.1c.18-.08.29,0,.27.2s-.1.58-.16.87c0,0-.07.06-.11.08a.15.15,0,0,1-.18-.09c0-.07,0-.15,0-.22-.1-.33-.18-.4-.51-.42s-.42,0-.48.39c-.15.87-.32,1.74-.48,2.61a.58.58,0,0,0,0,.43c.07.12.21.11.32.16a.14.14,0,0,1,.11.16c0,.09-.1.1-.17.1H106c-.06,0-.14,0-.14-.11a.14.14,0,0,1,.12-.15.52.52,0,0,0,.47-.4C106.68,44.16,106.9,43.13,107.07,42.05Z"/><path class="cls-2" d="M89.14,42.06a.83.83,0,0,0-1.08.41.66.66,0,0,1-.17.23s-.1,0-.13,0-.09-.07-.09-.1c.06-.26.12-.53.19-.79s.1-.28.41-.21a2.1,2.1,0,0,0,.43.05h1.92a1.37,1.37,0,0,0,.57-.1c.18-.08.26,0,.24.23s0,.34-.06.51,0,.4-.21.4-.16-.22-.2-.35a.58.58,0,0,0-.77-.36c-.11,0-.14.12-.16.22-.18,1-.38,1.93-.56,2.9,0,.25,0,.29.34.44.08,0,.12.07.13.15s-.08.13-.14.13H88.1c-.06,0-.16,0-.18-.07s.06-.18.15-.2a.48.48,0,0,0,.46-.4C88.74,44.15,88.94,43.12,89.14,42.06Z"/><path class="cls-2" d="M53.19,45.86H52.6c-.13,0-.33.08-.35-.13s.16-.15.26-.19.25-.29.29-.49c.17-.86.34-1.73.52-2.6,0-.26,0-.43-.29-.49a.12.12,0,0,1-.11-.15.13.13,0,0,1,.15-.12h1.55a.16.16,0,0,1,.17.09.13.13,0,0,1-.09.17c-.33.05-.43.28-.49.56-.16.87-.33,1.74-.5,2.6-.05.25,0,.44.29.49a.13.13,0,0,1,.1.17c0,.09-.11.09-.17.09Z"/><path class="cls-2" d="M110.8,41.68a3.38,3.38,0,0,1,.45,0c.14,0,.38-.11.42.13s-.21.15-.33.22a.7.7,0,0,0-.25.51c-.12.6-.23,1.2-.34,1.81l-.15.79c0,.22,0,.39.26.43a.16.16,0,0,1,.13.15c0,.1-.07.13-.13.13h-1.62a.17.17,0,0,1-.1-.07.11.11,0,0,1,.08-.17c.33-.06.42-.29.48-.57.15-.85.31-1.69.49-2.53.06-.29,0-.48-.3-.55a.15.15,0,0,1-.08-.18.15.15,0,0,1,.11-.08h.88Z"/><path class="cls-2" d="M112.2,24.74a2.73,2.73,0,0,1-.72,1,1.33,1.33,0,0,1-1.29.32,4,4,0,0,1-.49-.17.71.71,0,0,0-.92.19.48.48,0,0,1-.43.23.58.58,0,0,1-.28-.06c-.08-.07,0-.19,0-.27a6.31,6.31,0,0,1,.44-.58,1.35,1.35,0,0,1,1.65-.42,3.45,3.45,0,0,0,.42.14.64.64,0,0,0,.74-.17C111.57,24.65,111.83,24.65,112.2,24.74Z"/><polygon class="cls-2" points="48.53 22.5 48.53 22.47 48.54 22.49 48.53 22.5"/><path class="cls-2" d="M79.51,35.9c0-.06.08-.12.14-.07s0,.11,0,.17Z"/><g class="cls-3"><g class="cls-4"><image width="4561" height="3649" transform="translate(-25.12 -471.61) scale(0.44 0.43)" xlink:href="../../WEBSITE%20BASICA_Carpeta/Links/foto1.png"/></g></g></svg>